<?xml version="1.0" encoding="UTF-8"?>
<svg xmlns="http://www.w3.org/2000/svg" width="198" height="82" viewBox="0 0 198 82" fill="none">
  <path d="M106.841 0C109.447 2.50315 110.486 6.19873 109.846 10.1309C109.942 10.1501 110.121 10.1852 110.124 10.1788C110.658 8.12004 111.908 8.75622 113.209 9.30928C117.544 11.1539 121.262 13.7945 124.187 17.5156C126.943 21.0194 129.625 24.5839 132.653 27.8671C135.223 30.6548 138.001 33.1675 141.441 34.881C142.947 35.6323 142.998 36.0958 141.971 37.4225C141.844 37.5888 141.581 37.7582 141.594 37.9085C141.757 39.8362 140.651 41.0638 139.51 42.4704C138.094 44.2159 136.898 44.9767 134.721 44.3757C134.011 44.1807 133.276 43.9313 132.672 43.5253C128.481 40.6961 123.682 39.8202 118.813 39.1904C116.023 38.8291 113.212 38.6118 110.418 38.2825C109.041 38.1194 107.723 37.6911 106.454 37.1252C102.688 35.4373 101.144 32.6976 101.624 28.5864C101.659 28.2763 101.662 27.9598 101.681 27.5858C100.451 28.791 99.8432 31 100.252 33.2954C100.428 34.2896 100.243 34.9673 99.5618 35.7122C97.9059 37.528 96.6399 39.622 95.7352 41.9109C94.3637 45.3731 94.1783 48.8353 95.975 52.2144C96.4257 53.0616 96.2691 53.247 95.342 53.3142C81.231 54.3244 68.4627 45.6193 64.1917 32.1125C63.872 31.0991 64.2429 30.5141 64.7927 29.8428C72.7977 20.0731 82.9957 13.5643 94.9296 9.63216C95.6872 9.3828 96.4513 9.15583 97.2185 8.95123C98.9608 8.49088 101.327 8.58679 102.295 7.47108C103.43 6.16356 104.539 4.76014 105.754 3.4686C106.589 2.58307 106.959 1.48015 106.838 0.00319687L106.841 0Z" fill="#173252"></path>
  <path d="M38.0002 21.6397C42.4758 25.6838 47.3862 25.2042 52.2454 23.4683C56.964 21.7804 61.0112 18.7849 65.538 15.8918C62.664 15.5209 60.1992 15.0094 58.9045 12.2314C65.9887 12.8388 71.7719 8.96735 78.2967 7.25064C77.2161 6.0646 75.6113 5.56589 74.924 3.82359C78.3926 4.02819 81.7013 3.80761 84.9909 3.42079C89.4345 2.8965 93.7855 3.19381 98.0501 4.55568C98.9388 4.8402 99.9139 5.02562 100.588 6.03263C97.8487 6.65602 95.1537 7.27301 92.5195 8.12338C81.7461 11.5984 72.5966 17.7204 64.3679 25.3449C61.9543 27.5827 59.4927 29.7822 56.4685 31.1952C48.8631 34.7501 39.6274 30.0795 38.0065 21.6429L38.0002 21.6397Z" fill="#6F98B5"></path>
  <path d="M1.42 77V63H7.9C8.82 63 9.62 63.18 10.3 63.54C10.98 63.8867 11.5133 64.3733 11.9 65C12.2867 65.6267 12.48 66.3533 12.48 67.18C12.48 68.0067 12.2867 68.7333 11.9 69.36C11.5133 69.9867 10.9733 70.48 10.28 70.84C9.6 71.1867 8.80667 71.36 7.9 71.36H3.52V77H1.42ZM3.52 69.58H7.68C8.50667 69.58 9.16 69.3667 9.64 68.94C10.1333 68.5 10.38 67.92 10.38 67.2C10.38 66.48 10.1333 65.9067 9.64 65.48C9.16 65.0533 8.50667 64.84 7.68 64.84H3.52V69.58ZM19.578 77.2C18.458 77.2 17.378 76.98 16.338 76.54C15.298 76.1 14.378 75.48 13.578 74.68L14.858 73.2C15.618 73.9467 16.3913 74.5 17.178 74.86C17.978 75.22 18.8113 75.4 19.678 75.4C20.358 75.4 20.9513 75.3067 21.458 75.12C21.978 74.92 22.378 74.64 22.658 74.28C22.938 73.92 23.078 73.5133 23.078 73.06C23.078 72.4333 22.858 71.9533 22.418 71.62C21.978 71.2867 21.2513 71.0333 20.238 70.86L17.898 70.48C16.618 70.2533 15.658 69.84 15.018 69.24C14.3913 68.64 14.078 67.84 14.078 66.84C14.078 66.04 14.2913 65.34 14.718 64.74C15.1446 64.1267 15.7446 63.6533 16.518 63.32C17.3046 62.9867 18.2113 62.82 19.238 62.82C20.2513 62.82 21.2446 62.9867 22.218 63.32C23.2046 63.64 24.0913 64.1067 24.878 64.72L23.718 66.32C22.2113 65.1733 20.6846 64.6 19.138 64.6C18.5246 64.6 17.9913 64.6867 17.538 64.86C17.0846 65.0333 16.7313 65.28 16.478 65.6C16.2246 65.9067 16.098 66.2667 16.098 66.68C16.098 67.2533 16.2913 67.6933 16.678 68C17.0646 68.2933 17.7046 68.5067 18.598 68.64L20.858 69.02C22.338 69.26 23.4246 69.6933 24.118 70.32C24.8113 70.9467 25.158 71.8067 25.158 72.9C25.158 73.7533 24.9246 74.5067 24.458 75.16C23.9913 75.8 23.338 76.3 22.498 76.66C21.658 77.02 20.6846 77.2 19.578 77.2ZM31.2283 77L25.5083 63H27.7683L32.5083 74.92L37.3283 63H39.4883L33.6883 77H31.2283ZM47.2114 75.12H50.0914C50.8247 75.12 51.5047 74.9933 52.1314 74.74C52.7581 74.4733 53.3047 74.1133 53.7714 73.66C54.2514 73.1933 54.6181 72.6533 54.8714 72.04C55.1381 71.4133 55.2714 70.7333 55.2714 70C55.2714 69.28 55.1381 68.6067 54.8714 67.98C54.6181 67.3533 54.2514 66.8133 53.7714 66.36C53.3047 65.8933 52.7581 65.5333 52.1314 65.28C51.5047 65.0133 50.8247 64.88 50.0914 64.88H47.2114V75.12ZM45.1114 77V63H50.0514C51.1047 63 52.0781 63.18 52.9714 63.54C53.8647 63.8867 54.6447 64.3733 55.3114 65C55.9781 65.6267 56.4981 66.3667 56.8714 67.22C57.2447 68.0733 57.4314 69 57.4314 70C57.4314 71.0133 57.2447 71.9467 56.8714 72.8C56.5114 73.64 55.9981 74.3733 55.3314 75C54.6647 75.6267 53.8781 76.12 52.9714 76.48C52.0781 76.8267 51.1047 77 50.0514 77H45.1114ZM64.2827 77.18C63.2827 77.18 62.376 76.9467 61.5627 76.48C60.7627 76.0133 60.1227 75.38 59.6427 74.58C59.176 73.78 58.9427 72.8867 58.9427 71.9C58.9427 70.9267 59.1693 70.0467 59.6227 69.26C60.076 68.46 60.6893 67.8267 61.4627 67.36C62.236 66.88 63.096 66.64 64.0427 66.64C64.9893 66.64 65.8293 66.88 66.5627 67.36C67.296 67.8267 67.876 68.4667 68.3027 69.28C68.7427 70.08 68.9627 70.9867 68.9627 72V72.56H60.9427C61.0493 73.12 61.256 73.62 61.5627 74.06C61.8827 74.5 62.2827 74.8467 62.7627 75.1C63.256 75.3533 63.7893 75.48 64.3627 75.48C64.856 75.48 65.3293 75.4067 65.7827 75.26C66.2493 75.1 66.636 74.8733 66.9427 74.58L68.2227 75.84C67.6227 76.2933 67.0027 76.6333 66.3627 76.86C65.736 77.0733 65.0427 77.18 64.2827 77.18ZM60.9627 71.06H66.9827C66.9027 70.5267 66.716 70.06 66.4227 69.66C66.1427 69.2467 65.7893 68.9267 65.3627 68.7C64.9493 68.46 64.496 68.34 64.0027 68.34C63.496 68.34 63.0293 68.4533 62.6027 68.68C62.176 68.9067 61.816 69.2267 61.5227 69.64C61.2427 70.04 61.056 70.5133 60.9627 71.06ZM79.6072 77L73.8872 63H76.1472L80.8872 74.92L85.7072 63H87.8672L82.0672 77H79.6072ZM90.0706 65.18C89.7373 65.18 89.4506 65.06 89.2106 64.82C88.9706 64.5667 88.8506 64.2733 88.8506 63.94C88.8506 63.5933 88.9706 63.3067 89.2106 63.08C89.4506 62.84 89.7373 62.72 90.0706 62.72C90.4173 62.72 90.7106 62.84 90.9506 63.08C91.1906 63.3067 91.3106 63.5933 91.3106 63.94C91.3106 64.2733 91.1906 64.5667 90.9506 64.82C90.7106 65.06 90.4173 65.18 90.0706 65.18ZM88.1706 81.28C87.9573 81.28 87.7506 81.26 87.5506 81.22C87.3373 81.1933 87.164 81.1667 87.0306 81.14V79.54C87.2573 79.5933 87.524 79.62 87.8306 79.62C88.2706 79.62 88.584 79.52 88.7706 79.32C88.9706 79.1333 89.0706 78.82 89.0706 78.38V66.82H91.0706V78.52C91.0706 79.4 90.8173 80.08 90.3106 80.56C89.8173 81.04 89.104 81.28 88.1706 81.28ZM98.3061 77.18C97.3061 77.18 96.3994 76.9467 95.5861 76.48C94.7861 76.0133 94.1461 75.38 93.6661 74.58C93.1994 73.78 92.9661 72.8867 92.9661 71.9C92.9661 70.9267 93.1928 70.0467 93.6461 69.26C94.0994 68.46 94.7128 67.8267 95.4861 67.36C96.2594 66.88 97.1194 66.64 98.0661 66.64C99.0128 66.64 99.8528 66.88 100.586 67.36C101.319 67.8267 101.899 68.4667 102.326 69.28C102.766 70.08 102.986 70.9867 102.986 72V72.56H94.9661C95.0728 73.12 95.2794 73.62 95.5861 74.06C95.9061 74.5 96.3061 74.8467 96.7861 75.1C97.2794 75.3533 97.8128 75.48 98.3861 75.48C98.8794 75.48 99.3528 75.4067 99.8061 75.26C100.273 75.1 100.659 74.8733 100.966 74.58L102.246 75.84C101.646 76.2933 101.026 76.6333 100.386 76.86C99.7594 77.0733 99.0661 77.18 98.3061 77.18ZM94.9861 71.06H101.006C100.926 70.5267 100.739 70.06 100.446 69.66C100.166 69.2467 99.8128 68.9267 99.3861 68.7C98.9728 68.46 98.5194 68.34 98.0261 68.34C97.5194 68.34 97.0528 68.4533 96.6261 68.68C96.1994 68.9067 95.8394 69.2267 95.5461 69.64C95.2661 70.04 95.0794 70.5133 94.9861 71.06ZM104.891 77V66.82H106.891V67.86C107.678 67.0333 108.698 66.62 109.951 66.62C110.738 66.62 111.424 66.7867 112.011 67.12C112.611 67.4533 113.078 67.92 113.411 68.52C113.758 69.12 113.931 69.8133 113.931 70.6V77H111.931V70.94C111.931 70.14 111.704 69.5133 111.251 69.06C110.811 68.5933 110.191 68.36 109.391 68.36C108.858 68.36 108.378 68.4733 107.951 68.7C107.524 68.9267 107.171 69.2533 106.891 69.68V77H104.891ZM116.239 77V66.82H118.239V67.86C119.025 67.0333 120.045 66.62 121.299 66.62C122.085 66.62 122.772 66.7867 123.359 67.12C123.959 67.4533 124.425 67.92 124.759 68.52C125.105 69.12 125.279 69.8133 125.279 70.6V77H123.279V70.94C123.279 70.14 123.052 69.5133 122.599 69.06C122.159 68.5933 121.539 68.36 120.739 68.36C120.205 68.36 119.725 68.4733 119.299 68.7C118.872 68.9267 118.519 69.2533 118.239 69.68V77H116.239ZM132.466 77.18C131.466 77.18 130.56 76.9467 129.746 76.48C128.946 76.0133 128.306 75.38 127.826 74.58C127.36 73.78 127.126 72.8867 127.126 71.9C127.126 70.9267 127.353 70.0467 127.806 69.26C128.26 68.46 128.873 67.8267 129.646 67.36C130.42 66.88 131.28 66.64 132.226 66.64C133.173 66.64 134.013 66.88 134.746 67.36C135.48 67.8267 136.06 68.4667 136.486 69.28C136.926 70.08 137.146 70.9867 137.146 72V72.56H129.126C129.233 73.12 129.44 73.62 129.746 74.06C130.066 74.5 130.466 74.8467 130.946 75.1C131.44 75.3533 131.973 75.48 132.546 75.48C133.04 75.48 133.513 75.4067 133.966 75.26C134.433 75.1 134.82 74.8733 135.126 74.58L136.406 75.84C135.806 76.2933 135.186 76.6333 134.546 76.86C133.92 77.0733 133.226 77.18 132.466 77.18ZM129.146 71.06H135.166C135.086 70.5267 134.9 70.06 134.606 69.66C134.326 69.2467 133.973 68.9267 133.546 68.7C133.133 68.46 132.68 68.34 132.186 68.34C131.68 68.34 131.213 68.4533 130.786 68.68C130.36 68.9067 130 69.2267 129.706 69.64C129.426 70.04 129.24 70.5133 129.146 71.06ZM139.051 77V66.82H141.051V68.12C141.371 67.64 141.764 67.2667 142.231 67C142.711 66.72 143.251 66.58 143.851 66.58C144.264 66.5933 144.604 66.6533 144.871 66.76V68.56C144.684 68.48 144.491 68.4267 144.291 68.4C144.091 68.36 143.891 68.34 143.691 68.34C143.104 68.34 142.584 68.5 142.131 68.82C141.678 69.1267 141.318 69.58 141.051 70.18V77H139.051ZM150.276 77.2C149.49 77.2 148.796 77.0333 148.196 76.7C147.596 76.3667 147.13 75.9 146.796 75.3C146.463 74.6867 146.296 73.9867 146.296 73.2V66.82H148.276V72.86C148.276 73.66 148.503 74.2933 148.956 74.76C149.423 75.2267 150.043 75.46 150.816 75.46C151.363 75.46 151.85 75.3467 152.276 75.12C152.703 74.88 153.05 74.5467 153.316 74.12V66.82H155.316V77H153.316V75.96C152.53 76.7867 151.516 77.2 150.276 77.2ZM157.684 77V66.82H159.684V77H157.684ZM158.684 65.18C158.351 65.18 158.064 65.06 157.824 64.82C157.584 64.5667 157.464 64.2733 157.464 63.94C157.464 63.5933 157.584 63.3067 157.824 63.08C158.064 62.84 158.351 62.72 158.684 62.72C159.031 62.72 159.324 62.84 159.564 63.08C159.804 63.3067 159.924 63.5933 159.924 63.94C159.924 64.2733 159.804 64.5667 159.564 64.82C159.324 65.06 159.031 65.18 158.684 65.18ZM166.399 77.18C165.413 77.18 164.659 76.9533 164.139 76.5C163.619 76.0333 163.359 75.36 163.359 74.48V68.5H161.199V66.82H163.359V64.22L165.339 63.74V66.82H168.339V68.5H165.339V74.02C165.339 74.54 165.453 74.9133 165.679 75.14C165.919 75.3533 166.306 75.46 166.839 75.46C167.119 75.46 167.366 75.44 167.579 75.4C167.806 75.36 168.046 75.3 168.299 75.22V76.9C168.033 76.9933 167.719 77.06 167.359 77.1C167.013 77.1533 166.693 77.18 166.399 77.18ZM174.537 77.18C173.537 77.18 172.63 76.9467 171.817 76.48C171.017 76.0133 170.377 75.38 169.897 74.58C169.43 73.78 169.197 72.8867 169.197 71.9C169.197 70.9267 169.423 70.0467 169.877 69.26C170.33 68.46 170.943 67.8267 171.717 67.36C172.49 66.88 173.35 66.64 174.297 66.64C175.243 66.64 176.083 66.88 176.817 67.36C177.55 67.8267 178.13 68.4667 178.557 69.28C178.997 70.08 179.217 70.9867 179.217 72V72.56H171.197C171.303 73.12 171.51 73.62 171.817 74.06C172.137 74.5 172.537 74.8467 173.017 75.1C173.51 75.3533 174.043 75.48 174.617 75.48C175.11 75.48 175.583 75.4067 176.037 75.26C176.503 75.1 176.89 74.8733 177.197 74.58L178.477 75.84C177.877 76.2933 177.257 76.6333 176.617 76.86C175.99 77.0733 175.297 77.18 174.537 77.18ZM171.217 71.06H177.237C177.157 70.5267 176.97 70.06 176.677 69.66C176.397 69.2467 176.043 68.9267 175.617 68.7C175.203 68.46 174.75 68.34 174.257 68.34C173.75 68.34 173.283 68.4533 172.857 68.68C172.43 68.9067 172.07 69.2267 171.777 69.64C171.497 70.04 171.31 70.5133 171.217 71.06ZM181.121 77V66.82H183.121V68.12C183.441 67.64 183.835 67.2667 184.301 67C184.781 66.72 185.321 66.58 185.921 66.58C186.335 66.5933 186.675 66.6533 186.941 66.76V68.56C186.755 68.48 186.561 68.4267 186.361 68.4C186.161 68.36 185.961 68.34 185.761 68.34C185.175 68.34 184.655 68.5 184.201 68.82C183.748 69.1267 183.388 69.58 183.121 70.18V77H181.121ZM192.043 77.2C191.163 77.2 190.337 77.0733 189.563 76.82C188.803 76.5533 188.143 76.18 187.583 75.7L188.683 74.38C189.203 74.7933 189.737 75.1133 190.283 75.34C190.843 75.5533 191.41 75.66 191.983 75.66C192.703 75.66 193.29 75.52 193.743 75.24C194.197 74.96 194.423 74.5933 194.423 74.14C194.423 73.7667 194.29 73.4733 194.023 73.26C193.757 73.0467 193.343 72.9 192.783 72.82L190.943 72.56C189.93 72.4133 189.17 72.1 188.663 71.62C188.157 71.14 187.903 70.5 187.903 69.7C187.903 69.0867 188.07 68.5533 188.403 68.1C188.737 67.6333 189.203 67.2733 189.803 67.02C190.403 66.7533 191.103 66.62 191.903 66.62C192.637 66.62 193.343 66.7267 194.023 66.94C194.703 67.1533 195.357 67.4867 195.983 67.94L194.963 69.26C194.403 68.8867 193.857 68.6133 193.323 68.44C192.803 68.2667 192.277 68.18 191.743 68.18C191.13 68.18 190.637 68.3133 190.263 68.58C189.89 68.8333 189.703 69.1667 189.703 69.58C189.703 69.9533 189.83 70.2467 190.083 70.46C190.35 70.66 190.783 70.8 191.383 70.88L193.223 71.14C194.237 71.2867 195.003 71.6 195.523 72.08C196.043 72.5467 196.303 73.18 196.303 73.98C196.303 74.5933 196.117 75.1467 195.743 75.64C195.37 76.12 194.863 76.5 194.223 76.78C193.583 77.06 192.857 77.2 192.043 77.2Z" fill="#173252"></path>
</svg>
